<?xml version="1.0" encoding="utf-8"?>
<!-- Generator: Adobe Illustrator 23.0.3, SVG Export Plug-In . SVG Version: 6.00 Build 0)  -->
<svg version="1.1" id="Layer_1" xmlns="http://www.w3.org/2000/svg" xmlns:xlink="http://www.w3.org/1999/xlink" x="0px" y="0px"
	 viewBox="0 0 130 52" style="enable-background:new 0 0 130 52;" xml:space="preserve">
<style type="text/css">
	.st0{fill:url(#SVGID_1_);}
	.st1{fill:#FFFFFF;}
	.st2{font-family:'Montserrat-Bold';}
	.st3{font-size:25.825px;}
	.st4{letter-spacing:1;}
	.st5{font-family:'Montserrat-Regular';}
	.st6{font-size:15.422px;}
	.st7{letter-spacing:2;}
</style>
<linearGradient id="SVGID_1_" gradientUnits="userSpaceOnUse" x1="-5.7454" y1="56.3037" x2="46.2458" y2="3.3472" gradientTransform="matrix(1 0 0 -1 0 54)">
	<stop  offset="0" style="stop-color:#468EF9"/>
	<stop  offset="1" style="stop-color:#0C66EE"/>
</linearGradient>
<path class="st0" d="M5.9,2.9h30.9c3.3,0,5.9,2.6,5.9,5.9v33c0,3.3-2.6,5.9-5.9,5.9H5.9C2.6,47.7,0,45,0,41.8v-33
	C0,5.5,2.6,2.9,5.9,2.9z"/>
<g>
	<path class="st1" d="M32.5,39.4h-6.7l-8.9-14.9v14.9h-6.7V12.6h6.7l8.9,15.1V12.6h6.7V39.4z"/>
	<rect x="2.2" y="18.6" class="st1" width="38.4" height="3.3"/>
	<rect x="2.2" y="27.7" class="st1" width="38.4" height="3.3"/>
</g>
<text transform="matrix(1 0 0 1 46.9522 29.0009)" class="st2 st3 st4">AIRA</text>
<text transform="matrix(1 0 0 1 71.3206 44.2513)" class="st5 st6 st7">Coin</text>
</svg>
